<svg xmlns="http://www.w3.org/2000/svg" width="116" height="24" viewBox="0 0 116 24">
  <metadata><?xpacket begin="﻿" id="W5M0MpCehiHzreSzNTczkc9d"?>
<x:xmpmeta xmlns:x="adobe:ns:meta/" x:xmptk="Adobe XMP Core 5.6-c142 79.160924, 2017/07/13-01:06:39        ">
   <rdf:RDF xmlns:rdf="http://www.w3.org/1999/02/22-rdf-syntax-ns#">
      <rdf:Description rdf:about=""/>
   </rdf:RDF>
</x:xmpmeta>
                                                                                                    
                                                                                                    
                                                                                                    
                                                                                                    
                                                                                                    
                                                                                                    
                                                                                                    
                                                                                                    
                                                                                                    
                                                                                                    
                                                                                                    
                                                                                                    
                                                                                                    
                                                                                                    
                                                                                                    
                                                                                                    
                                                                                                    
                                                                                                    
                                                                                                    
                                                                                                    
                           
<?xpacket end="w"?></metadata>
<defs>
    <style>
      .cls-1 {
        fill: #fff;
        fill-rule: evenodd;
      }
    </style>
  </defs>
  <path id="logo" class="cls-1" d="M1439.99,607c-3.52,0-6.95-1.658-7.71-5.324-0.13-.649-1.04-3.209,1.11-8.978a32.8,32.8,0,0,1,5.74-9.695s0.07,11.265.04,11.879a3.775,3.775,0,0,1-1.21,3.243c-1.38,1.093-3.13,2.6-3.23,3.482-0.3,2.8,3.53,3.518,5.26,3.518s5.56-.72,5.26-3.518c-0.09-.884-1.85-2.389-3.23-3.482a3.731,3.731,0,0,1-1.2-3.243c-0.04-.614.03-11.88,0.03-11.879a32.8,32.8,0,0,1,5.74,9.695c2.15,5.769,1.24,8.329,1.11,8.978-0.76,3.666-4.19,5.324-7.71,5.324m-34.16-2.064V585.629h2.94l11.35,15.157V585.629h2.75v19.307h-2.94l-11.35-15.171v15.171h-2.75Zm-51.2,0V585.629h2.86v19.307h-2.86Zm-22.63,0V585.629h2.93l11.01,15.157V585.629h2.74v19.307h-2.93l-11.01-15.171v15.171H1332Zm60.25-19.12a9.571,9.571,0,1,0,9.41,9.57,9.489,9.489,0,0,0-9.41-9.57h0Zm0,2.865a6.705,6.705,0,1,0,6.6,6.7,6.648,6.648,0,0,0-6.6-6.7h0Zm-29.67,16.255,7.52-9.463-7.82-9.844h3.64l6,7.552,5.99-7.552h3.64l-7.81,9.844,7.51,9.463h-3.64l-5.69-7.171-5.7,7.171h-3.64Z" transform="translate(-1332 -583)"/>
</svg>
